<?xml version="1.0" encoding="utf-8"?>
<!-- Generator: Adobe Illustrator 27.4.0, SVG Export Plug-In . SVG Version: 6.00 Build 0)  -->
<svg version="1.1" id="레이어_1" xmlns="http://www.w3.org/2000/svg" xmlns:xlink="http://www.w3.org/1999/xlink" x="0px"
	 y="0px" viewBox="0 0 282.17 71.98" style="enable-background:new 0 0 282.17 71.98;" xml:space="preserve">
<style type="text/css">
	.st0{fill:#FFFFFF;}
</style>
<g>
	<path class="st0" d="M61.4,35.94c0,21.89-14.6,34.21-40.69,34.21H4.93V19.71c2.65-5.38,7.85-8.58,13.96-8.67v51.45h1.64
		c17.24,0,27.55-10.13,27.55-27c0-16.15-10.67-26.27-27.55-26.27H17.7c-6.57,0-11.04,1.92-13.96,4.56C2.01,9.85,0.37,4.2,0,0.55
		l0.46-0.36c5.2,1.37,13.68,1.55,19.89,1.55C46.07,1.73,61.4,14.51,61.4,35.94z"/>
	<path class="st0" d="M84.3,9.67c-6.11,0-10.76,1.37-13.78,4.1C68.61,9.85,66.96,4.2,66.6,0.55l0.46-0.36
		c3.92,1,10.58,1.55,19.89,1.55h12.5c6.39,0,11.49-0.64,14.69-1.73c1.64,3.1,3.28,8.85,3.65,12.95c-5.02-2.19-10.86-3.28-17.79-3.28
		H84.3z M71.52,19.25c2.46-4.93,7.3-7.66,13.96-7.75V31.2c1.55,0.27,2.92,0.27,4.83,0.27h11.13c3.92,0,7.57-0.82,10.76-2.46
		c1.82,3.38,3.38,8.12,3.92,12.04c-3.74-0.82-8.21-1.19-14.05-1.19l-13.23,0.09c-1.37,0-2.46,0.18-3.38,0.46v27.09
		c-4.47,1.82-9.3,3.19-13.96,4.47V19.25z"/>
	<path class="st0" d="M124.26,59.39c0-1.82-1-3.56-1.73-4.01c5.38-1.46,9.67-2.28,14.96-3.01v13.87c-3.47,1.46-7.39,2.46-13.23,4.01
		V59.39z"/>
	<path class="st0" d="M164.3,62.49c13.68,0,23.63-1.55,32.02-4.93c-0.09,3.74-1.18,8.67-2.74,12.59h-48.17v-1.92L176.26,9.3h-14.6
		c-4.47,0-9.49,1.82-12.41,4.56c-1.73-3.92-3.38-9.67-3.74-13.32l0.36-0.36c3.92,1,11.04,1.55,20.43,1.55h12.5
		c5.93,0,11.95,0.27,16.88,0.82c-1.18,0.82-2.19,2.1-3.56,4.93L164.3,62.49z"/>
	<path class="st0" d="M205.91,10.76c0-3.56-1-5.2-3.83-6.2V4.1c3.56-1.37,12.68-2.74,19.98-3.1c-1.64,1.19-2.37,2.92-2.37,5.57
		v60.94c-4.47,1.82-9.12,3.19-13.78,4.47V10.76z"/>
	<path class="st0" d="M248.14,35.4h1.64c13.14,0,19.25-4.29,19.25-13.41c0-8.48-6.11-12.5-19.25-12.5h-2.83
		c-5.84,0-10.67,1.55-13.96,4.56c-1.73-3.92-3.38-9.49-3.74-13.14l0.46-0.37c3.92,1.1,10.58,1.64,19.89,1.64
		c22.08,0,32.57,6.57,32.57,20.25c0,12.95-9.58,20.16-26.91,20.16h-7.12v24.9c-4.11,1.64-8.58,2.83-13.96,4.47v-52
		c2.65-5.38,7.85-8.58,13.96-8.67V35.4z"/>
</g>
</svg>
